<?xml version="1.0" standalone="no"?>
<!DOCTYPE svg PUBLIC "-//W3C//DTD SVG 20010904//EN"
 "http://www.w3.org/TR/2001/REC-SVG-20010904/DTD/svg10.dtd">
<svg version="1.0" xmlns="http://www.w3.org/2000/svg"
 width="360.000000pt" height="360.000000pt" viewBox="0 0 360.000000 360.000000"
 preserveAspectRatio="xMidYMid meet">
<metadata>
Created by potrace 1.11, written by Peter Selinger 2001-2013
</metadata>
<g transform="translate(0.000000,360.000000) scale(0.100000,-0.100000)"
fill="#000000" stroke="none">
<path d="M2760 2461 c-47 -48 -102 -100 -123 -115 l-37 -28 -54 37 -53 36 -51
-31 c-56 -34 -198 -97 -278 -124 l-50 -16 -66 30 c-112 50 -302 91 -413 88
-27 0 -39 -2 -25 -5 89 -13 190 -48 190 -64 0 -10 -26 -15 -213 -39 -254 -33
-393 -62 -604 -127 -117 -36 -129 -30 -71 32 87 94 231 160 413 190 l90 15
-78 -5 c-141 -9 -323 -85 -456 -193 l-35 -27 7 25 c32 113 39 143 44 201 6 75
-4 88 -53 63 -44 -23 -95 -76 -213 -219 -162 -197 -216 -281 -252 -384 -29
-84 -26 -107 24 -155 23 -22 51 -46 61 -51 18 -10 17 -16 -24 -100 -55 -118
-60 -137 -48 -182 24 -89 203 -206 434 -282 244 -82 610 -118 1071 -108 299 7
360 20 623 134 234 103 342 123 530 100 84 -10 95 -3 95 65 -1 39 -9 67 -30
108 -34 62 -183 222 -287 307 l-71 57 87 83 c103 98 148 126 241 149 95 23
123 39 142 79 21 45 7 80 -36 90 -25 5 -38 1 -69 -23 -49 -38 -140 -95 -200
-126 l-48 -24 -42 48 -42 48 -67 -23 c-80 -28 -239 -62 -248 -53 -16 16 120
238 200 326 35 39 72 66 136 98 93 46 119 75 119 132 0 36 -17 52 -54 51 -25
0 -47 -16 -116 -88z m-2170 -551 c0 -5 -4 -10 -10 -10 -5 0 -10 5 -10 10 0 6
5 10 10 10 6 0 10 -4 10 -10z m597 -42 c-3 -8 -6 -5 -6 6 -1 11 2 17 5 13 3
-3 4 -12 1 -19z m1143 -36 c0 -13 -12 -22 -22 -16 -10 6 -1 24 13 24 5 0 9 -4
9 -8z m20 -87 c0 -8 -4 -15 -10 -15 -5 0 -10 7 -10 15 0 8 5 15 10 15 6 0 10
-7 10 -15z m-1855 -16 c10 -15 -1 -23 -20 -15 -9 3 -13 10 -10 16 8 13 22 13
30 -1z m1865 -29 c0 -5 -4 -10 -10 -10 -5 0 -10 5 -10 10 0 6 5 10 10 10 6 0
10 -4 10 -10z m66 -27 c-10 -10 -19 5 -10 18 6 11 8 11 12 0 2 -7 1 -15 -2
-18z m51 -15 c-3 -8 -6 -5 -6 6 -1 11 2 17 5 13 3 -3 4 -12 1 -19z m-217 -78
c0 -5 -4 -10 -10 -10 -5 0 -10 5 -10 10 0 6 5 10 10 10 6 0 10 -4 10 -10z
m-1482 -31 c-2 -6 -8 -10 -13 -10 -5 0 -11 4 -13 10 -2 6 4 11 13 11 9 0 15
-5 13 -11z m1382 -19 c0 -5 -4 -10 -9 -10 -6 0 -13 5 -16 10 -3 6 1 10 9 10 9
0 16 -4 16 -10z m-130 -40 c0 -5 -2 -10 -4 -10 -3 0 -8 5 -11 10 -3 6 -1 10 4
10 6 0 11 -4 11 -10z m73 -51 c-17 -17 -37 -1 -22 17 8 10 15 12 23 4 7 -7 7
-13 -1 -21z m94 15 c-3 -3 -12 -4 -19 -1 -8 3 -5 6 6 6 11 1 17 -2 13 -5z
m-272 -23 c0 -8 -4 -16 -10 -18 -16 -5 -38 14 -30 26 9 16 40 9 40 -8z m-1045
-21 c0 -5 -4 -10 -10 -10 -5 0 -10 5 -10 10 0 6 5 10 10 10 6 0 10 -4 10 -10z
m1120 -5 c0 -8 -7 -15 -15 -15 -16 0 -20 12 -8 23 11 12 23 8 23 -8z m-995
-55 c0 -7 -6 -15 -12 -17 -8 -3 -13 4 -13 17 0 13 5 20 13 18 6 -3 12 -11 12
-18z m-83 -25 c0 -5 -5 -11 -11 -13 -6 -2 -11 4 -11 13 0 9 5 15 11 13 6 -2
11 -8 11 -13z m310 -50 c0 -5 -5 -11 -11 -13 -6 -2 -11 4 -11 13 0 9 5 15 11
13 6 -2 11 -8 11 -13z m-97 -65 c3 -5 -1 -10 -10 -10 -9 0 -13 5 -10 10 3 6 8
10 10 10 2 0 7 -4 10 -10z m202 -56 c-9 -9 -28 6 -21 18 4 6 10 6 17 -1 6 -6
8 -13 4 -17z m-97 6 c0 -5 -4 -10 -10 -10 -5 0 -10 5 -10 10 0 6 5 10 10 10 6
0 10 -4 10 -10z m-68 -22 c-9 -9 -15 -9 -24 0 -9 9 -7 12 12 12 19 0 21 -3 12
-12z"/>
</g>
</svg>
